<svg width="96" height="58" viewBox="0 0 96 58" fill="none" xmlns="http://www.w3.org/2000/svg">
<path d="M41.9687 57.7019C41.0671 57.692 40.1961 57.3734 39.5009 56.7993C38.8058 56.2251 38.3286 55.4301 38.1487 54.5468L37.2601 49.8702C35.2543 49.504 33.2726 49.0163 31.3259 48.41H31.1727L22.9403 52.2289C22.2639 52.5213 21.5297 52.6558 20.7934 52.6222C20.0572 52.5886 19.3383 52.3877 18.6914 52.0349L10.5203 47.297C10.0272 47.0322 9.61093 46.6445 9.31186 46.1715C9.01278 45.6986 8.84104 45.1564 8.8133 44.5975C8.78555 44.0386 8.90274 43.4821 9.1535 42.9818C9.40425 42.4816 9.78007 42.0546 10.2445 41.7422L15.2084 38.1684C14.7577 37.5685 14.345 36.941 13.9725 36.2896L3.51357 35.6361C2.5642 35.5765 1.673 35.1583 1.02057 34.4663C0.368154 33.7742 0.00331437 32.8601 0 31.9091V25.7826C0.000555831 24.8315 0.362819 23.9162 1.01336 23.2223C1.6639 22.5283 2.55404 22.1076 3.50335 22.0454L13.9623 21.3817C14.3349 20.7336 14.7476 20.1095 15.1982 19.5131L10.2139 15.9699C9.74943 15.6576 9.37361 15.2306 9.12286 14.7303C8.8721 14.2301 8.75491 13.6735 8.78266 13.1147C8.8104 12.5558 8.98214 12.0136 9.28122 11.5406C9.58029 11.0676 9.99655 10.6799 10.4896 10.4151L18.6607 5.67727C19.372 5.28007 20.1748 5.07588 20.9895 5.08502C21.651 5.0755 22.3065 5.21146 22.9097 5.48326L31.1522 9.30214H31.2544C33.2248 8.6912 35.2303 8.20017 37.2601 7.83176L38.1487 3.15517C38.3268 2.27098 38.8036 1.47488 39.4991 0.900405C40.1946 0.325931 41.0666 0.00802894 41.9687 0H54.0313C54.9329 0.00991754 55.8039 0.328492 56.499 0.902649C57.1942 1.47681 57.6714 2.27184 57.8513 3.15517L58.7399 7.83176C60.7411 8.19945 62.7191 8.68361 64.6639 9.28173H64.8171L73.0597 5.46282C73.6596 5.19217 74.3115 5.05625 74.9697 5.06461C75.7877 5.05416 76.5942 5.25835 77.3086 5.65683L85.4797 10.3947C85.9711 10.6606 86.3857 11.0483 86.684 11.5206C86.9822 11.993 87.1539 12.534 87.1826 13.0918C87.2113 13.6496 87.0961 14.2054 86.848 14.7059C86.5998 15.2063 86.2271 15.6346 85.7657 15.9495L80.7916 19.5233C81.2431 20.1213 81.6592 20.7452 82.0377 21.3919L92.4966 22.0556C93.4459 22.1178 94.3361 22.5385 94.9866 23.2325C95.6372 23.9264 95.9994 24.8417 96 25.7928V31.9193C95.997 32.8697 95.6339 33.7836 94.9839 34.4771C94.3338 35.1705 93.4451 35.592 92.4966 35.6565L82.0377 36.3101C81.6617 36.9616 81.2455 37.589 80.7916 38.1889L85.7657 41.7627C86.2271 42.0776 86.5998 42.5058 86.848 43.0063C87.0961 43.5067 87.2113 44.0625 87.1826 44.6203C87.1539 45.1781 86.9822 45.7192 86.684 46.1915C86.3857 46.6638 85.9711 47.0515 85.4797 47.3174L77.3086 52.0553C76.5923 52.449 75.7871 52.6529 74.9697 52.6475C74.312 52.6508 73.6612 52.5151 73.0597 52.2493L64.8171 48.4304H64.715C62.7483 49.0448 60.7461 49.5392 58.7194 49.911L57.8308 54.5774C57.6531 55.4626 57.1767 56.26 56.4814 56.8361C55.786 57.4123 54.9139 57.7324 54.0109 57.7428L41.9687 57.7019ZM48.0051 23.3115C43.6429 23.2088 39.3274 24.2285 35.4727 26.2727C32.6639 27.8962 31.0501 29.969 31.0501 31.9806C31.0501 33.9922 32.6639 36.065 35.4727 37.6885C39.3651 39.6357 43.6577 40.6495 48.0102 40.6495C52.3627 40.6495 56.6553 39.6357 60.5477 37.6885C63.3565 36.065 64.9601 33.9922 64.9601 31.9806C64.9601 29.969 63.3565 27.8962 60.5477 26.2727C56.6889 24.2298 52.3705 23.2102 48.0051 23.3115Z" fill="#E0E0E0"/>
</svg>
