<svg width="195" height="113" viewBox="0 0 195 113" fill="none" xmlns="http://www.w3.org/2000/svg">
<path d="M193.276 2.95979L189.87 0.998281C188.575 0.342009 187.143 0 185.692 0C184.24 0 182.808 0.342009 181.513 0.998281L1.72318 104.817C-0.574393 106.138 -0.574393 108.313 1.72318 109.634L5.1187 111.596C6.41549 112.252 7.84859 112.594 9.30211 112.594C10.7556 112.594 12.1887 112.252 13.4855 111.596L68.0986 80.0893L90.2305 92.8544C96.4929 96.4725 106.751 96.4725 113.013 92.8544L150.689 71.1049C156.037 68.0559 156.037 62.9742 150.689 59.9252L126.91 46.0929L193.286 7.78737C195.573 6.45598 195.573 4.29119 193.276 2.95979Z" fill="#E0E0E0"/>
</svg>
