<svg width="12" height="19" viewBox="0 0 12 19" fill="none" xmlns="http://www.w3.org/2000/svg">
<path d="M11.3835 12.0116L7.70908 9.25916L11.496 2.01484C11.6657 1.69191 11.7001 1.31483 11.5916 0.966552C11.4832 0.618274 11.2408 0.327332 10.9178 0.157724C10.5948 -0.0118831 10.2175 -0.0462596 9.86917 0.0621576C9.52079 0.170575 9.22977 0.412899 9.06012 0.735832L5.47784 7.5811L2.20261 5.10494C2.05879 4.9961 1.89494 4.91664 1.7204 4.8711C1.54587 4.82557 1.36409 4.81485 1.18541 4.83956C1.00673 4.86426 0.834651 4.92391 0.679031 5.01509C0.52341 5.10627 0.387282 5.22719 0.278411 5.37097C0.16954 5.51474 0.090071 5.67855 0.0445237 5.85303C-0.00102356 6.02751 -0.0117656 6.20926 0.0129452 6.38788C0.037656 6.56651 0.0973413 6.73852 0.188548 6.89409C0.279755 7.04967 0.400715 7.18577 0.544533 7.29461L4.18822 10.047L0.554778 16.9844C0.385519 17.3088 0.351887 17.687 0.46126 18.0361C0.570634 18.3853 0.814054 18.6767 1.13815 18.8466C1.33479 18.9466 1.55211 18.9992 1.77272 19.0001C2.02374 19.0005 2.27005 18.932 2.48482 18.8021C2.69958 18.6722 2.87456 18.4859 2.9907 18.2634L6.40924 11.7353L9.69469 14.2115C9.98591 14.4292 10.3512 14.5234 10.7114 14.4736C11.0717 14.4238 11.3977 14.234 11.6189 13.9455C11.8432 13.6574 11.9444 13.2923 11.9002 12.93C11.8561 12.5676 11.6703 12.2374 11.3835 12.0116Z" fill="#F5F7FA"/>
</svg>
