<svg width="180" height="239" viewBox="0 0 180 239" fill="none" xmlns="http://www.w3.org/2000/svg">
<path d="M178.058 0.904725C178.567 0.904725 178.638 1.53498 178.638 1.92127V133.472C178.585 134.246 178.356 134.997 177.968 135.668C177.581 136.339 177.045 136.913 176.401 137.345L2.23704 237.983C2.10519 238.065 1.95453 238.11 1.7998 238.116C1.32189 238.116 0.904985 237.373 0.904985 236.52V105.589C0.95242 104.814 1.17918 104.061 1.56738 103.389C1.95559 102.717 2.49463 102.144 3.14203 101.716L177.306 1.1487C177.531 1.00263 177.79 0.918479 178.058 0.904725ZM178.058 0C177.633 0.0114908 177.218 0.137948 176.859 0.365957L2.68445 100.923C1.90207 101.435 1.25136 102.125 0.785002 102.935C0.31864 103.746 0.0497187 104.655 0 105.589V236.489C0 237.841 0.75246 239 1.7998 239C2.11643 238.994 2.42558 238.903 2.69462 238.736L176.848 138.098C177.635 137.59 178.29 136.904 178.76 136.095C179.23 135.285 179.502 134.376 179.553 133.442V1.92127C179.553 0.701416 178.943 0 178.058 0Z" fill="#E0E0E0"/>
</svg>
