<svg width="112" height="21" viewBox="0 0 112 21" fill="none" xmlns="http://www.w3.org/2000/svg">
<path d="M17.1105 0V20.4567H13.3748L4.47491 7.58137H4.32508V20.4567H0V0H3.79568L12.6256 12.8654H12.8054V0H17.1105Z" fill="#263238"/>
<path d="M27.5961 20.7564C26.0179 20.7564 24.6594 20.4367 23.5207 19.7975C22.3887 19.1515 21.5163 18.2392 20.9037 17.0606C20.2911 15.8753 19.9847 14.4735 19.9847 12.8554C19.9847 11.2772 20.2911 9.89207 20.9037 8.7001C21.5163 7.50812 22.3787 6.57918 23.4908 5.91327C24.6095 5.24736 25.9213 4.91441 27.4263 4.91441C28.4385 4.91441 29.3807 5.07755 30.2531 5.40385C31.1321 5.72348 31.8979 6.20627 32.5504 6.8522C33.2097 7.49813 33.7224 8.31054 34.0887 9.28942C34.4549 10.2617 34.6381 11.4004 34.6381 12.7055V13.8742H21.6828V11.2372H30.6326C30.6326 10.6246 30.4994 10.0819 30.2331 9.60906C29.9667 9.13627 29.5971 8.76669 29.1243 8.50032C28.6582 8.2273 28.1155 8.09079 27.4962 8.09079C26.8503 8.09079 26.2776 8.24062 25.7782 8.54028C25.2854 8.83328 24.8992 9.22949 24.6195 9.72892C24.3398 10.2217 24.1966 10.7711 24.19 11.377V13.8842C24.19 14.6433 24.3298 15.2993 24.6095 15.852C24.8958 16.4047 25.2987 16.8308 25.8181 17.1305C26.3375 17.4302 26.9535 17.58 27.666 17.58C28.1388 17.58 28.5716 17.5134 28.9645 17.3802C29.3574 17.247 29.6937 17.0473 29.9734 16.7809C30.2531 16.5145 30.4661 16.1882 30.6126 15.802L34.5482 16.0617C34.3484 17.0073 33.9389 17.833 33.3196 18.5389C32.7069 19.2381 31.9145 19.7841 30.9423 20.177C29.9767 20.5633 28.8613 20.7564 27.5961 20.7564Z" fill="#263238"/>
<path d="M40.6962 5.11418L43.513 10.4781L46.3997 5.11418H50.7647L46.3198 12.7854L50.8846 20.4567H46.5395L43.513 15.1528L40.5364 20.4567H36.1414L40.6962 12.7854L36.3012 5.11418H40.6962Z" fill="#263238"/>
<path d="M59.6746 20.7564C58.103 20.7564 56.7512 20.4234 55.6192 19.7575C54.4938 19.0849 53.6281 18.1527 53.0221 16.9607C52.4228 15.7687 52.1232 14.3969 52.1232 12.8454C52.1232 11.2738 52.4262 9.8954 53.0321 8.71008C53.6448 7.51811 54.5138 6.58916 55.6392 5.92326C56.7645 5.25069 58.103 4.91441 59.6546 4.91441C60.9931 4.91441 62.1651 5.15746 63.1706 5.64357C64.1761 6.12969 64.9719 6.81224 65.5579 7.69124C66.1439 8.57024 66.4668 9.6024 66.5268 10.7877H62.5113C62.3981 10.0219 62.0985 9.40596 61.6124 8.93982C61.1329 8.46703 60.5036 8.23063 59.7245 8.23063C59.0653 8.23063 58.4893 8.41043 57.9965 8.77002C57.5104 9.12295 57.1308 9.63903 56.8578 10.3183C56.5847 10.9975 56.4482 11.8199 56.4482 12.7854C56.4482 13.7643 56.5814 14.5967 56.8478 15.2826C57.1208 15.9685 57.5037 16.4912 57.9965 16.8508C58.4893 17.2104 59.0653 17.3902 59.7245 17.3902C60.2106 17.3902 60.6468 17.2903 61.033 17.0905C61.4259 16.8908 61.7489 16.6011 62.0019 16.2215C62.2616 15.8353 62.4314 15.3725 62.5113 14.8331H66.5268C66.4602 16.0051 66.1405 17.0373 65.5679 17.9296C65.0018 18.8152 64.2194 19.5078 63.2205 20.0072C62.2217 20.5067 61.0397 20.7564 59.6746 20.7564Z" fill="#263238"/>
<path d="M76.2432 20.7564C74.665 20.7564 73.3065 20.4367 72.1678 19.7975C71.0358 19.1515 70.1635 18.2392 69.5508 17.0606C68.9382 15.8753 68.6319 14.4735 68.6319 12.8554C68.6319 11.2772 68.9382 9.89207 69.5508 8.7001C70.1635 7.50812 71.0258 6.57918 72.1379 5.91327C73.2566 5.24736 74.5684 4.91441 76.0734 4.91441C77.0856 4.91441 78.0278 5.07755 78.9002 5.40385C79.7792 5.72348 80.545 6.20627 81.1976 6.8522C81.8568 7.49813 82.3696 8.31054 82.7358 9.28942C83.1021 10.2617 83.2852 11.4004 83.2852 12.7055V13.8742H70.3299V11.2372H79.2797C79.2797 10.6246 79.1466 10.0819 78.8802 9.60906C78.6138 9.13627 78.2443 8.76669 77.7715 8.50032C77.3053 8.2273 76.7626 8.09079 76.1433 8.09079C75.4974 8.09079 74.9247 8.24062 74.4253 8.54028C73.9325 8.83328 73.5463 9.22949 73.2666 9.72892C72.9869 10.2217 72.8437 10.7711 72.8371 11.377V13.8842C72.8371 14.6433 72.9769 15.2993 73.2566 15.852C73.5429 16.4047 73.9458 16.8308 74.4652 17.1305C74.9846 17.4302 75.6006 17.58 76.3131 17.58C76.7859 17.58 77.2188 17.5134 77.6116 17.3802C78.0045 17.247 78.3408 17.0473 78.6205 16.7809C78.9002 16.5145 79.1133 16.1882 79.2598 15.802L83.1953 16.0617C82.9955 17.0073 82.586 17.833 81.9667 18.5389C81.3541 19.2381 80.5616 19.7841 79.5894 20.177C78.6238 20.5633 77.5084 20.7564 76.2432 20.7564Z" fill="#263238"/>
<path d="M90.3172 11.5868V20.4567H86.062V5.11418H90.1174V7.8211H90.2972C90.6368 6.92878 91.2062 6.22291 92.0053 5.70351C92.8043 5.17744 93.7732 4.91441 94.9119 4.91441C95.9774 4.91441 96.9063 5.14747 97.6988 5.61361C98.4912 6.07975 99.1072 6.74565 99.5467 7.61134C99.9862 8.47036 100.206 9.49586 100.206 10.6878V20.4567H95.9508V11.447C95.9574 10.508 95.7177 9.77554 95.2316 9.24947C94.7455 8.71674 94.0762 8.45038 93.2239 8.45038C92.6512 8.45038 92.1451 8.57357 91.7056 8.81996C91.2728 9.06635 90.9331 9.42594 90.6868 9.89873C90.447 10.3649 90.3238 10.9276 90.3172 11.5868Z" fill="#263238"/>
<path d="M111.72 5.11418V8.31054H102.481V5.11418H111.72ZM104.578 1.43836H108.834V15.7421C108.834 16.135 108.894 16.4413 109.013 16.661C109.133 16.8741 109.3 17.024 109.513 17.1105C109.733 17.1971 109.986 17.2404 110.272 17.2404C110.472 17.2404 110.672 17.2237 110.871 17.1904C111.071 17.1505 111.224 17.1205 111.331 17.1005L112 20.2669C111.787 20.3335 111.487 20.4101 111.101 20.4967C110.715 20.5899 110.245 20.6465 109.693 20.6665C108.667 20.7064 107.768 20.5699 106.996 20.2569C106.23 19.944 105.634 19.4579 105.208 18.7986C104.782 18.1394 104.572 17.307 104.578 16.3014V1.43836Z" fill="#263238"/>
</svg>
