<svg width="138" height="26" viewBox="0 0 138 26" fill="none" xmlns="http://www.w3.org/2000/svg">
<path d="M21.0826 0V25.2056H16.4796L5.51372 9.34133H5.32911V25.2056H0V0H4.67682L15.5566 15.852H15.7781V0H21.0826Z" fill="white"/>
<path d="M34.0023 25.5748C32.0577 25.5748 30.3839 25.181 28.9809 24.3933C27.586 23.5974 26.5112 22.4733 25.7563 21.0211C25.0015 19.5606 24.6241 17.8334 24.6241 15.8396C24.6241 13.8951 25.0015 12.1884 25.7563 10.7198C26.5112 9.25108 27.5737 8.10649 28.944 7.28599C30.3224 6.4655 31.9388 6.05525 33.7931 6.05525C35.0402 6.05525 36.2012 6.25627 37.2761 6.65831C38.3591 7.05215 39.3027 7.64701 40.1068 8.44289C40.9191 9.23877 41.5509 10.2398 42.0021 11.4459C42.4534 12.6438 42.679 14.0469 42.679 15.655V17.095H26.7163V13.8458H37.7438C37.7438 13.091 37.5797 12.4223 37.2515 11.8397C36.9233 11.2572 36.4679 10.8018 35.8853 10.4736C35.311 10.1372 34.6423 9.96901 33.8792 9.96901C33.0834 9.96901 32.3777 10.1536 31.7624 10.5228C31.1552 10.8839 30.6793 11.3721 30.3347 11.9874C29.9901 12.5946 29.8137 13.2715 29.8055 14.0181V17.1073C29.8055 18.0427 29.9778 18.8509 30.3224 19.5319C30.6752 20.2129 31.1716 20.738 31.8116 21.1072C32.4516 21.4764 33.2105 21.6611 34.0885 21.6611C34.671 21.6611 35.2043 21.579 35.6884 21.4149C36.1725 21.2508 36.5869 21.0047 36.9315 20.6765C37.2761 20.3483 37.5386 19.9462 37.7192 19.4703L42.5683 19.7903C42.3221 20.9554 41.8175 21.9728 41.0545 22.8426C40.2996 23.7041 39.3232 24.3769 38.1253 24.861C36.9356 25.3369 35.5613 25.5748 34.0023 25.5748Z" fill="white"/>
<path d="M50.1435 6.3014L53.6142 12.9105L57.171 6.3014H62.5494L57.0726 15.7535L62.6971 25.2056H57.3433L53.6142 18.6704L49.9466 25.2056H44.5313L50.1435 15.7535L44.7282 6.3014H50.1435Z" fill="white"/>
<path d="M73.5276 25.5748C71.5912 25.5748 69.9256 25.1646 68.5308 24.3441C67.1441 23.5154 66.0775 22.3667 65.3308 20.898C64.5924 19.4293 64.2232 17.7391 64.2232 15.8273C64.2232 13.891 64.5965 12.1925 65.3432 10.7321C66.098 9.26338 67.1688 8.11879 68.5554 7.2983C69.942 6.4696 71.5912 6.05525 73.503 6.05525C75.1522 6.05525 76.5962 6.35473 77.8352 6.95369C79.0741 7.55265 80.0546 8.39366 80.7766 9.47671C81.4987 10.5598 81.8966 11.8315 81.9705 13.292H77.0229C76.8834 12.3484 76.5142 11.5895 75.9152 11.0151C75.3245 10.4326 74.5491 10.1413 73.5891 10.1413C72.7768 10.1413 72.0671 10.3628 71.4599 10.8059C70.861 11.2408 70.3933 11.8767 70.0569 12.7136C69.7205 13.5505 69.5523 14.5638 69.5523 15.7535C69.5523 16.9596 69.7164 17.9852 70.0446 18.8303C70.381 19.6755 70.8528 20.3195 71.4599 20.7626C72.0671 21.2057 72.7768 21.4272 73.5891 21.4272C74.1881 21.4272 74.7255 21.3041 75.2014 21.058C75.6855 20.8118 76.0834 20.4549 76.3952 19.9872C76.7152 19.5114 76.9244 18.9411 77.0229 18.2765H81.9705C81.8884 19.7206 81.4946 20.9924 80.789 22.0918C80.0915 23.1831 79.1275 24.0364 77.8967 24.6518C76.666 25.2671 75.2096 25.5748 73.5276 25.5748Z" fill="white"/>
<path d="M93.9425 25.5748C91.9979 25.5748 90.3241 25.181 88.9211 24.3933C87.5262 23.5974 86.4514 22.4733 85.6965 21.0211C84.9417 19.5606 84.5643 17.8334 84.5643 15.8396C84.5643 13.8951 84.9417 12.1884 85.6965 10.7198C86.4514 9.25108 87.5139 8.10649 88.8842 7.28599C90.2626 6.4655 91.879 6.05525 93.7333 6.05525C94.9804 6.05525 96.1414 6.25627 97.2163 6.65831C98.2993 7.05215 99.2429 7.64701 100.047 8.44289C100.859 9.23877 101.491 10.2398 101.942 11.4459C102.394 12.6438 102.619 14.0469 102.619 15.655V17.095H86.6565V13.8458H97.684C97.684 13.091 97.5199 12.4223 97.1917 11.8397C96.8635 11.2572 96.4081 10.8018 95.8255 10.4736C95.2512 10.1372 94.5825 9.96901 93.8194 9.96901C93.0236 9.96901 92.3179 10.1536 91.7026 10.5228C91.0954 10.8839 90.6195 11.3721 90.2749 11.9874C89.9303 12.5946 89.7539 13.2715 89.7457 14.0181V17.1073C89.7457 18.0427 89.918 18.8509 90.2626 19.5319C90.6154 20.2129 91.1118 20.738 91.7518 21.1072C92.3918 21.4764 93.1507 21.6611 94.0287 21.6611C94.6112 21.6611 95.1445 21.579 95.6286 21.4149C96.1127 21.2508 96.5271 21.0047 96.8717 20.6765C97.2163 20.3483 97.4788 19.9462 97.6593 19.4703L102.508 19.7903C102.262 20.9554 101.758 21.9728 100.995 22.8426C100.24 23.7041 99.2634 24.3769 98.0655 24.861C96.8758 25.3369 95.5014 25.5748 93.9425 25.5748Z" fill="white"/>
<path d="M111.284 14.2766V25.2056H106.041V6.3014H111.038V9.63671H111.259C111.677 8.53724 112.379 7.66752 113.364 7.02753C114.348 6.37934 115.542 6.05525 116.945 6.05525C118.258 6.05525 119.402 6.34242 120.379 6.91677C121.355 7.49112 122.114 8.31161 122.656 9.37825C123.197 10.4367 123.468 11.7003 123.468 13.1689V25.2056H118.225V14.1043C118.233 12.9474 117.938 12.0449 117.339 11.3967C116.74 10.7403 115.915 10.4121 114.865 10.4121C114.159 10.4121 113.536 10.5639 112.994 10.8674C112.461 11.171 112.043 11.6141 111.739 12.1967C111.444 12.771 111.292 13.4643 111.284 14.2766Z" fill="white"/>
<path d="M137.655 6.3014V10.2398H126.271V6.3014H137.655ZM128.856 1.77227H134.099V19.3965C134.099 19.8806 134.172 20.258 134.32 20.5288C134.468 20.7913 134.673 20.9759 134.935 21.0826C135.206 21.1893 135.518 21.2426 135.871 21.2426C136.117 21.2426 136.363 21.2221 136.609 21.1811C136.855 21.1318 137.044 21.0949 137.175 21.0703L138 24.9717C137.737 25.0538 137.368 25.1482 136.892 25.2548C136.416 25.3697 135.838 25.4394 135.157 25.464C133.893 25.5133 132.786 25.3451 131.834 24.9594C130.89 24.5738 130.156 23.9749 129.631 23.1626C129.106 22.3503 128.847 21.3246 128.856 20.0857V1.77227Z" fill="white"/>
</svg>
