<svg width="4" height="7" viewBox="0 0 4 7" fill="none" xmlns="http://www.w3.org/2000/svg">
<path d="M2.55292 4.04064V5.97656C2.56865 6.06264 2.56865 6.15084 2.55292 6.23692C2.52256 6.31036 2.47139 6.37333 2.4057 6.41807L1.44313 6.97282C1.42262 6.99036 1.39652 6.99998 1.36953 6.99998C1.34253 6.99998 1.31643 6.99036 1.29592 6.97282C1.28315 6.94235 1.27657 6.90961 1.27657 6.87657C1.27657 6.84353 1.28315 6.81083 1.29592 6.78035V4.84445L0.163477 5.52372C0.153963 5.53365 0.14254 5.54154 0.12989 5.54694C0.11724 5.55234 0.103625 5.55513 0.0898703 5.55513C0.0761153 5.55513 0.062501 5.55234 0.0498507 5.54694C0.0372003 5.54154 0.0257772 5.53365 0.0162634 5.52372C-0.00542114 5.46529 -0.00542114 5.40102 0.0162634 5.34258V4.15386C-0.000823038 4.06791 -0.000823038 3.97942 0.0162634 3.89346C0.0466235 3.82003 0.0977912 3.75708 0.163477 3.71234L1.29592 3.03307V1.01791C1.27568 0.932293 1.27568 0.843144 1.29592 0.757528C1.32639 0.68716 1.37779 0.627861 1.44313 0.587701L2.4057 0.0216451C2.42765 0.00750759 2.45321 0 2.47931 0C2.50542 0 2.53098 0.00750759 2.55292 0.0216451C2.57449 0.0839857 2.57449 0.151761 2.55292 0.214102V2.15002L3.68536 1.47075C3.70731 1.45661 3.73286 1.4491 3.75897 1.4491C3.78508 1.4491 3.81063 1.45661 3.83257 1.47075C3.85484 1.49715 3.87138 1.52789 3.88113 1.56102C3.89088 1.59416 3.89362 1.62897 3.8892 1.66322V2.85192C3.89223 2.94207 3.87277 3.03157 3.83257 3.11232C3.79892 3.18374 3.7484 3.24589 3.68536 3.29345L2.55292 4.04064Z" fill="#F5F7FA"/>
</svg>
