<svg width="35" height="42" viewBox="0 0 35 42" fill="none" xmlns="http://www.w3.org/2000/svg">
<path d="M19.5629 1.91915C19.5629 3.97173 21.4518 6.87613 24.3262 9.38028C23.9868 11.2797 24.0392 13.2285 24.4802 15.107C24.6567 15.6908 24.9272 16.2419 25.281 16.7388C25.4121 16.9467 25.5879 17.1228 25.7957 17.2541C26.0035 17.3855 26.2379 17.4689 26.482 17.4982C27.1493 17.4982 27.4163 17.1493 27.6216 16.6259C27.9247 15.9627 28.2675 15.3184 28.6482 14.6964C28.8176 14.4309 29.0136 14.1833 29.2333 13.9575C30.2599 13.0236 33.2267 11.9049 34.6126 15.0659C35.9985 18.2269 33.4012 22.7015 30.999 23.3686C26.8927 24.5283 25.9585 21.706 25.9585 21.706L26.0303 35.3967C24.8703 38.8655 18.4439 42.242 13.2699 41.5544C8.09594 40.8668 9.73846 37.7469 11.843 35.6327L11.5761 30.881C9.73427 31.0635 7.87619 30.9945 6.05304 30.6758C3.90748 30.2652 2.14176 28.2537 1.24863 24.9799C-0.174104 18.7424 -0.383227 12.2895 0.632675 5.97299C1.41288 2.11415 2.36759 0.451567 2.82955 0C2.82955 0.841557 4.4413 3.41754 8.6195 3.99226C13.0338 4.62856 16.3805 3.2328 19.5629 1.91915Z" fill="#E8F5E9"/>
</svg>
