<svg width="13" height="21" viewBox="0 0 13 21" fill="none" xmlns="http://www.w3.org/2000/svg">
<path d="M12.9919 20.9488C12.595 21.0171 12.1893 21.0171 11.7924 20.9488C10.6934 20.836 9.61429 20.5778 8.58334 20.1807C6.86213 19.5339 5.29523 18.5342 3.98333 17.2459C2.67143 15.9575 1.64354 14.409 0.96569 12.6998C0.216453 10.8196 -0.103472 8.79579 0.0292674 6.77615C0.0761773 5.1103 0.574371 3.48843 1.47072 2.08352C2.10119 1.13706 3.04291 0.440998 4.13269 0.115963C4.4239 0.0356183 4.72497 -0.00334368 5.02703 0.000224621C5.23747 0.000224621 5.34268 0.000224621 5.34268 0.000224621C5.34268 0.000224621 4.90078 0.000229093 4.19583 0.284313C3.19606 0.653662 2.34811 1.34607 1.78637 2.25185C0.355435 4.50347 -0.0443787 8.61744 1.48126 12.4578C2.19132 14.2686 3.30294 15.8946 4.73243 17.2136C5.90373 18.2928 7.25283 19.1614 8.72011 19.7809C10.0971 20.325 11.5296 20.7167 12.9919 20.9488Z" fill="#263238"/>
</svg>
