<svg width="88" height="64" viewBox="0 0 88 64" fill="none" xmlns="http://www.w3.org/2000/svg">
<path d="M87.9999 2.29344C87.6664 2.16468 87.3061 2.12049 86.9513 2.16483C86.5966 2.20917 86.2583 2.34064 85.9667 2.54752L6.77079 48.1915C5.90566 48.7575 5.18547 49.5186 4.66812 50.4136C4.15077 51.3085 3.8507 52.3124 3.79204 53.3444V63.0708L0 60.845V51.1897C0.0542842 50.1593 0.351513 49.1562 0.867419 48.2625C1.38333 47.3687 2.10329 46.6096 2.96857 46.047L82.1746 0.403037C82.4813 0.174505 82.8461 0.0370672 83.2274 0.00650484C83.6086 -0.0240575 83.9908 0.0534974 84.3299 0.230261C84.8992 0.585981 87.3696 2.00886 87.9999 2.29344Z" fill="#4CAF4F"/>
</svg>
