<svg width="136" height="285" viewBox="0 0 136 285" fill="none" xmlns="http://www.w3.org/2000/svg">
<path d="M120.1 0.352294H100.056C99.402 0.364417 98.7567 0.50527 98.1571 0.766805C97.5576 1.02834 97.0154 1.40543 96.5616 1.87654C96.1078 2.34766 95.7512 2.90356 95.5123 3.51249C95.2734 4.12143 95.1568 4.77147 95.1691 5.42549V9.05955C95.1815 9.71307 95.0648 10.3626 94.8257 10.9709C94.5867 11.5793 94.23 12.1345 93.776 12.6048C93.3221 13.0751 92.7798 13.4512 92.1803 13.7116C91.5808 13.972 90.9359 14.1116 90.2823 14.1224L51.2084 13.9464C49.8865 13.9111 48.6327 13.3527 47.7223 12.3937C46.8118 11.4348 46.3192 10.1537 46.3526 8.83178V5.19771C46.386 3.87756 45.8948 2.59798 44.9866 1.63931C44.0784 0.680638 42.8272 0.121036 41.5072 0.0831017H34.4565L16.9074 0.000280044C12.7333 -0.0245721 8.71937 1.60557 5.74458 4.53379C2.7698 7.462 1.07652 11.4497 1.03551 15.6236L0.000167334 268.683C-0.00937201 270.754 0.389041 272.806 1.17267 274.723C1.9563 276.639 3.10981 278.383 4.56731 279.854C6.02481 281.325 7.75776 282.494 9.66723 283.296C11.5767 284.097 13.6253 284.514 15.696 284.524L118.899 285C120.971 285.009 123.025 284.611 124.943 283.827C126.861 283.042 128.606 281.888 130.078 280.43C131.55 278.971 132.72 277.237 133.522 275.326C134.323 273.416 134.741 271.366 134.75 269.294L135.786 16.2345C135.811 12.0487 134.172 8.02445 131.231 5.04624C128.29 2.06803 124.286 0.379668 120.1 0.352294Z" fill="white"/>
</svg>
