<svg width="150" height="305" viewBox="0 0 150 305" fill="none" xmlns="http://www.w3.org/2000/svg">
<path d="M125.92 305L22.4304 304.523C16.454 304.49 10.7349 302.087 6.52928 297.84C2.32367 293.594 -0.0246039 287.852 0.000194429 281.875L1.09839 22.4409C1.11061 19.4799 1.70625 16.5504 2.85128 13.8198C3.99631 11.0892 5.66829 8.61104 7.77161 6.52696C9.87493 4.44288 12.3684 2.79376 15.1094 1.67387C17.8504 0.553983 20.7853 -0.014711 23.7462 0.000289184L127.226 0.476866C133.202 0.507024 138.922 2.90799 143.13 7.15245C147.338 11.3969 149.688 17.1378 149.666 23.1143L148.568 282.539C148.556 285.5 147.96 288.431 146.816 291.163C145.671 293.894 143.999 296.374 141.896 298.46C139.793 300.545 137.3 302.197 134.559 303.319C131.818 304.441 128.882 305.012 125.92 305Z" fill="#455A64"/>
</svg>
