<svg width="91" height="73" viewBox="0 0 91 73" fill="none" xmlns="http://www.w3.org/2000/svg">
<path d="M14.1014 56.5414C15.4156 52.0564 22.1639 29.8821 22.1639 29.8821C22.1639 29.8821 25.4806 47.9574 24.6045 50.1373C23.7986 52.0035 22.8465 53.803 21.7571 55.5192C14.1014 67.1696 15.1027 73 15.1027 73L61.36 71.5919C61.4643 65.1253 57.6365 50.0851 56.8438 47.6862C56.0511 45.2873 58.6899 37.4335 58.6899 37.4335C58.6899 37.4335 63.905 32.1246 63.7172 29.3919C63.6182 26.9372 63.3146 24.4951 62.8098 22.0909L90.971 23.1339L90.0844 4.04687L49.6367 0C48.2286 3.97385 35.4935 2.02343 35.4935 2.02343C21.7467 2.48236 20.8914 5.00644 15.1757 9.44965C9.46007 13.8929 0 52.0251 0 52.0251L14.1014 56.5414Z" fill="#4CAF4F"/>
</svg>
