<svg width="22" height="12" viewBox="0 0 22 12" fill="none" xmlns="http://www.w3.org/2000/svg">
<path d="M20.9495 0C18.4549 1.74987 15.0905 0.335285 11.7784 0.733458C8.46631 1.13163 5.63638 1.94893 2.97414 1.87558C0.311904 1.80224 -0.987772 2.33663 0.877891 4.46371C2.74355 6.5908 8.07851 5.36485 9.52492 6.0145C9.93686 6.25499 10.2887 6.586 10.5537 6.98251C10.8187 7.37903 10.9901 7.83064 11.0547 8.30313C11.1193 8.77563 11.0756 9.25662 10.9268 9.70971C10.7779 10.1628 10.528 10.5761 10.1957 10.9183C8.63403 12.7311 19.0838 9.23131 20.4778 7.08327C21.8719 4.93523 22.8361 0.272434 20.9495 0Z" fill="#E8F5E9"/>
</svg>
