<svg width="72" height="44" viewBox="0 0 72 44" fill="none" xmlns="http://www.w3.org/2000/svg">
<path d="M0.684552 12.5301C0.631958 12.287 0.527858 12.058 0.379246 11.8586C0.120496 11.3892 -0.0101087 10.8601 0.000610495 10.3243C0.0113297 9.78845 0.162992 9.26491 0.440307 8.80628C0.620224 8.5822 0.770716 8.33601 0.888111 8.07373C1.09166 7.51414 0.837224 6.88333 0.888111 6.28304C1.0713 3.60719 5.91567 4.77724 7.45244 5.26561C7.90024 5.41822 10.5056 6.08973 11.5234 6.44584C11.4323 4.97743 11.5766 3.5039 11.9508 2.08103C12.6429 -0.696574 14.9328 -0.41169 15.0651 1.28743C15.191 2.82567 15.4776 4.34654 15.92 5.8252C16.2049 6.91386 16.9377 7.99233 17.355 9.59988C17.9554 11.6348 17.8028 12.7743 19.8382 14.6871C22.8914 17.5664 38.5644 28.1884 38.5644 28.1884C42.4725 25.6754 57.5959 16.376 63.2647 13.3033C68.7502 10.3223 71.549 12.7234 71.549 12.7234L66.7657 30.3352C66.7657 30.3352 47.9072 40.0619 41.1087 43.0328C36.3661 45.0677 34.2696 43.9282 29.0385 39.2683C24.8861 35.341 19.4108 29.6637 13.4978 24.4341C11.1366 22.3382 9.42686 21.2699 7.75778 21.1885C7.12679 21.1885 6.49579 21.1173 5.87498 21.0562C4.47051 20.8934 2.82178 20.5475 2.1399 19.1536C1.90582 18.6856 1.79387 18.1362 1.6005 17.6682C1.30536 16.9153 0.837205 16.2437 0.582773 15.4908C0.373122 14.9862 0.302846 14.4345 0.379246 13.8935C0.379246 13.456 0.745616 13.0185 0.684552 12.5301Z" fill="#E8F5E9"/>
</svg>
