<svg width="21" height="161" viewBox="0 0 21 161" fill="none" xmlns="http://www.w3.org/2000/svg">
<path d="M16.5375 161C16.5261 160.859 16.5261 160.717 16.5375 160.576V159.335C16.5375 158.218 16.6202 156.615 16.6823 154.577C16.8271 150.44 17.0339 144.432 17.2925 137.068C17.851 122.257 18.637 101.842 19.4954 79.3055C19.4954 79.0883 19.4954 78.8814 19.4954 78.6953V78.7676C14.0656 57.0486 9.15301 37.336 5.58489 23.0739L1.44793 6.20544C0.972179 4.23004 0.610197 2.68902 0.351638 1.61341C0.227529 1.10663 0.144785 0.713619 0.0723885 0.413689C0.0320996 0.279111 0.00780815 0.140262 0 0C0.0537198 0.130336 0.0952614 0.265346 0.124104 0.403337C0.206843 0.692924 0.310259 1.08595 0.455052 1.58238C0.734297 2.61662 1.13765 4.18865 1.65477 6.15371C2.68901 10.1459 4.14729 15.8963 5.96755 22.9808C9.5667 37.2326 14.5311 56.8935 20.0332 78.6435V78.7159C20.0332 78.9021 20.0332 79.1193 20.0332 79.3261C19.1127 101.862 18.275 122.268 17.6648 137.078C17.3442 144.452 17.0753 150.42 16.8891 154.577C16.7857 156.646 16.703 158.218 16.6512 159.335C16.6512 159.862 16.5892 160.276 16.5789 160.576C16.5804 160.718 16.5665 160.861 16.5375 161Z" fill="#455A64"/>
</svg>
