<svg width="86" height="178" viewBox="0 0 86 178" fill="none" xmlns="http://www.w3.org/2000/svg">
<path d="M83.8755 1.02146C83.9713 1.01712 84.0665 1.03826 84.1514 1.08274H84.2024C84.2024 1.08274 84.5192 1.34832 84.5192 2.1042V126.65C84.4657 127.509 84.2136 128.343 83.7827 129.088C83.3519 129.832 82.7541 130.466 82.0363 130.941L2.45219 176.906C2.30743 176.996 2.14233 177.049 1.97197 177.059H1.79828H1.74718L1.66546 176.998H1.60414L1.55307 176.947C1.42556 176.816 1.32183 176.664 1.24654 176.497C1.09762 176.152 1.02112 175.78 1.02175 175.405V51.4508C1.08435 50.5946 1.3403 49.7637 1.77034 49.0206C2.20038 48.2776 2.79332 47.6416 3.5046 47.1606L83.099 1.28703C83.3435 1.12854 83.6253 1.03696 83.9164 1.02146H83.8755ZM83.9164 0C83.4464 0.0143229 82.9884 0.151686 82.5881 0.398367L2.99372 46.272C2.12424 46.8409 1.40042 47.6058 0.880468 48.5053C0.360516 49.4047 0.0589476 50.4136 0 51.4508V175.251C6.19528e-05 175.772 0.107904 176.286 0.31674 176.763C0.446252 177.059 0.633854 177.327 0.868479 177.55C0.918088 177.603 0.972855 177.65 1.03196 177.693L1.20566 177.815L1.36914 177.897C1.45009 177.938 1.53591 177.969 1.62458 177.989C1.75015 178.004 1.87705 178.004 2.00262 177.989C2.3385 177.976 2.6655 177.877 2.95286 177.703L82.5472 131.737C83.4195 131.171 84.1455 130.407 84.6658 129.507C85.1861 128.607 85.486 127.597 85.5409 126.558V2.14506C85.5739 1.80763 85.5252 1.46723 85.3989 1.15258C85.2726 0.837917 85.0726 0.558221 84.8155 0.337079C84.5444 0.135446 84.2133 0.0310821 83.8755 0.0408553L83.9164 0Z" fill="#455A64"/>
</svg>
