<svg width="5" height="9" viewBox="0 0 5 9" fill="none" xmlns="http://www.w3.org/2000/svg">
<path d="M2.26115 0.307354C2.52815 0.135125 2.83327 0.0308675 3.14986 0.00369886C3.39513 -0.0147242 3.64064 0.0359298 3.85858 0.149906C4.05272 0.267088 4.21197 0.434048 4.31981 0.633489C4.43219 0.844602 4.49018 1.08038 4.48856 1.31951C4.50435 1.38607 4.50435 1.4554 4.48856 1.52196C4.46939 1.58239 4.42956 1.63413 4.37605 1.66815L3.3861 2.24172C3.32707 2.25696 3.26514 2.25696 3.20611 2.24172L3.08236 2.17424L3.00362 2.09551C2.96515 2.05673 2.91923 2.02612 2.86862 2.00554C2.79089 1.98773 2.71012 1.98773 2.63239 2.00554C2.51455 2.01695 2.40191 2.05966 2.30615 2.12925C2.20813 2.18646 2.11416 2.25033 2.02491 2.32043C1.93826 2.38665 1.85905 2.46206 1.78867 2.54536C1.7219 2.63235 1.66528 2.72668 1.61993 2.82651C1.5786 2.93011 1.55944 3.04122 1.56368 3.15267C1.55273 3.24081 1.57698 3.32971 1.63118 3.40009C1.66358 3.43138 1.70277 3.45476 1.7457 3.46842C1.78863 3.48208 1.83414 3.48562 1.87867 3.4788C2.03068 3.47291 2.18159 3.45028 2.32865 3.41133L3.02612 3.23138C3.26326 3.16143 3.51031 3.13105 3.75734 3.14143C3.9459 3.14788 4.12737 3.21492 4.27481 3.33261C4.42691 3.47611 4.53599 3.65915 4.5898 3.86119C4.6655 4.15105 4.69959 4.45019 4.69105 4.74964C4.68806 5.13144 4.62737 5.5106 4.51105 5.87427C4.3953 6.26711 4.2329 6.64468 4.02732 6.9989C3.8175 7.34131 3.56415 7.65508 3.27361 7.93235C2.996 8.21297 2.68196 8.45505 2.3399 8.65211C2.05433 8.83425 1.73131 8.94959 1.39494 8.9895C1.15225 9.02192 0.905456 8.97886 0.688092 8.86618C0.470727 8.75351 0.293329 8.57669 0.179992 8.35971C0.0651833 8.11689 0.00380576 7.85227 0 7.58371C0.00412697 7.50942 0.0232598 7.43673 0.0562467 7.37003C0.0747053 7.31539 0.110188 7.2681 0.157492 7.23508L1.1587 6.66151C1.20774 6.62571 1.26672 6.60605 1.32744 6.60527C1.37048 6.60988 1.41042 6.62985 1.43994 6.66151L1.54118 6.75148C1.58045 6.80723 1.63521 6.85024 1.69867 6.87519C1.78315 6.89987 1.87293 6.89987 1.95741 6.87519C2.09451 6.86437 2.22638 6.81784 2.3399 6.74024C2.59151 6.60096 2.81934 6.42253 3.01486 6.21166C3.18613 6.04209 3.28321 5.81158 3.28485 5.57061C3.29002 5.52584 3.2834 5.48051 3.26564 5.43908C3.24788 5.39765 3.2196 5.36159 3.18361 5.33445C3.08721 5.31379 2.98752 5.31379 2.89112 5.33445C2.71966 5.35279 2.55022 5.38666 2.38489 5.43566L1.65367 5.62685C1.46518 5.69667 1.26141 5.71472 1.06357 5.67912C0.865727 5.64352 0.68104 5.55557 0.528724 5.42442C0.242749 5.01897 0.114736 4.52305 0.16874 4.02988C0.169152 3.67618 0.218364 3.32422 0.314985 2.98396C0.414359 2.61565 0.557894 2.26071 0.742467 1.92682C0.931128 1.58751 1.15755 1.27058 1.41744 0.982122C1.66392 0.716906 1.94822 0.489538 2.26115 0.307354Z" fill="#F5F7FA"/>
</svg>
