<svg width="5" height="119" viewBox="0 0 5 119" fill="none" xmlns="http://www.w3.org/2000/svg">
<path d="M4.87284 119L4.49408 118.785C4.19589 118.596 3.88841 118.422 3.57277 118.263L3.07116 117.977L2.29316 117.526L1.62776 117.148L1.25923 116.943C1.06078 116.846 0.886082 116.706 0.747392 116.534C0.5776 116.353 0.439204 116.146 0.337924 115.92C0.111304 115.425 -0.00401696 114.887 0.000106821 114.344V0L3.81844 2.24122V116.482C3.83702 117.002 3.94435 117.514 4.13578 117.997C4.26554 118.294 4.45351 118.562 4.68858 118.785C4.73064 118.846 4.78688 118.895 4.85238 118.928L4.87284 119Z" fill="#37474F"/>
</svg>
