<svg width="5" height="5" viewBox="0 0 5 5" fill="none" xmlns="http://www.w3.org/2000/svg">
<path d="M4.99329 2.68294C4.95747 3.1711 4.77916 3.638 4.48043 4.02575C4.18171 4.4135 3.77574 4.70502 3.31286 4.86416C2.84998 5.02331 2.35056 5.04308 1.87655 4.92101C1.40254 4.79895 0.974789 4.54044 0.646351 4.17752C0.317914 3.8146 0.10325 3.36322 0.0289635 2.87941C-0.0453232 2.39561 0.0240346 1.90065 0.228457 1.4559C0.43288 1.01116 0.763376 0.63622 1.17893 0.377566C1.59448 0.118913 2.0768 -0.01207 2.56611 0.000874649C3.24109 0.0416214 3.87324 0.345244 4.32698 0.846626C4.78071 1.34801 5.01991 2.00725 4.99329 2.68294Z" fill="#4CAF4F"/>
</svg>
