<svg width="3" height="4" viewBox="0 0 3 4" fill="none" xmlns="http://www.w3.org/2000/svg">
<path d="M2.41531 3.44703C2.41531 3.44703 2.41532 3.56364 2.31991 3.70145C2.24104 3.80141 2.13901 3.88068 2.02265 3.93239C1.90629 3.9841 1.7791 4.00671 1.65205 3.99827C0.9736 3.99827 0.316354 3.21381 0.0831363 2.30214C-0.0277121 1.86021 -0.0277121 1.39777 0.0831363 0.955844C0.104896 0.76295 0.174455 0.578533 0.285525 0.419333C0.396595 0.260132 0.545652 0.131185 0.719176 0.044173C0.861744 -0.0147243 1.02184 -0.0147243 1.16441 0.044173C1.27011 0.0966555 1.35576 0.182281 1.40824 0.287987C1.48244 0.468201 1.40824 0.584815 1.40824 0.574214C1.40824 0.563613 1.40823 0.468209 1.30222 0.362201C1.24681 0.286272 1.16533 0.233465 1.07339 0.213903C0.981446 0.194341 0.885509 0.209393 0.803984 0.256186C0.673949 0.334816 0.56591 0.445046 0.489919 0.57664C0.413928 0.708234 0.372451 0.856908 0.369347 1.00883C0.28012 1.40315 0.28012 1.81242 0.369347 2.20673C0.581363 3.0336 1.15381 3.70145 1.66265 3.76505C1.7622 3.77855 1.86347 3.7714 1.96013 3.74404C2.0568 3.71668 2.14678 3.66971 2.22449 3.60605C2.3517 3.52124 2.39411 3.43643 2.41531 3.44703Z" fill="#EB996E"/>
</svg>
