<svg width="11" height="12" viewBox="0 0 11 12" fill="none" xmlns="http://www.w3.org/2000/svg">
<path d="M6.34955 0C8.05946 0.413745 8.59311 1.49166 8.71291 3.89792C8.77826 5.32425 9.37728 7.92648 11.0001 8.87374C10.2488 8.84666 9.52342 8.59229 8.91985 8.14425C8.13569 7.43652 7.92878 7.3712 7.54759 7.8285C7.2659 8.13546 6.91488 8.37063 6.52382 8.51444C6.80411 8.79494 6.98627 9.15847 7.04318 9.55086C7.10009 9.94324 7.02869 10.3435 6.83964 10.692C6.17528 11.9768 2.8317 12.2273 0 10.9969C0 10.9969 4.54161 12.0857 5.44557 10.605C6.34954 9.12418 3.90992 7.51274 2.17823 7.15343C2.17823 7.15343 6.53471 7.88294 7.10105 6.43483C7.66739 4.98672 5.81588 4.03946 3.24557 3.57127C3.24557 3.57127 6.83965 3.97413 7.36242 2.72201C7.55815 2.22319 7.56305 1.66975 7.37618 1.16755C7.18931 0.665355 6.82379 0.249659 6.34955 0Z" fill="#C8E6C9"/>
</svg>
