<svg width="4" height="10" viewBox="0 0 4 10" fill="none" xmlns="http://www.w3.org/2000/svg">
<path d="M3.80522 0.0283462C3.8138 0.0193872 3.82411 0.0122572 3.83552 0.00738652C3.84693 0.00251587 3.85921 0 3.87162 0C3.88403 0 3.89631 0.00251587 3.90772 0.00738652C3.91913 0.0122572 3.92944 0.0193872 3.93802 0.0283462C3.95967 0.0493656 3.97641 0.074924 3.987 0.103178C3.9976 0.131431 4.00181 0.161682 3.99931 0.191753V7.0547C3.99694 7.13663 3.97598 7.21694 3.93802 7.28959C3.91111 7.35344 3.86461 7.40707 3.80522 7.44278L2.90624 7.96363C2.89766 7.97259 2.88735 7.97972 2.87594 7.98459C2.86453 7.98946 2.85225 7.99196 2.83984 7.99196C2.82743 7.99196 2.81515 7.98946 2.80374 7.98459C2.79233 7.97972 2.78202 7.97259 2.77344 7.96363C2.77344 7.96363 2.77344 7.88193 2.77344 7.80023V5.19598L1.24109 6.08448V8.67852C1.2416 8.76084 1.22046 8.84183 1.1798 8.91341C1.15571 8.97864 1.1131 9.03543 1.05721 9.07682L0.148019 9.59766C0.129515 9.61348 0.105968 9.62217 0.0816189 9.62217C0.0572697 9.62217 0.0337186 9.61348 0.0152148 9.59766C-0.0050716 9.54156 -0.0050716 9.48014 0.0152148 9.42404V2.5611C0.00102623 2.48344 0.00102623 2.40386 0.0152148 2.32621C0.0455739 2.26178 0.0911526 2.2057 0.148019 2.1628L1.05721 1.64196C1.07489 1.6287 1.0964 1.62153 1.11851 1.62153C1.14061 1.62153 1.16212 1.6287 1.1798 1.64196C1.2017 1.66493 1.21849 1.69227 1.22905 1.7222C1.23962 1.75212 1.24372 1.78395 1.24109 1.81557V4.36875L2.77344 3.49046V0.92707C2.75518 0.849837 2.75518 0.7694 2.77344 0.692167C2.80375 0.630507 2.8495 0.577741 2.90624 0.538982L3.80522 0.0283462Z" fill="#F5F7FA"/>
</svg>
