<svg width="26" height="28" viewBox="0 0 26 28" fill="none" xmlns="http://www.w3.org/2000/svg">
<path opacity="0.4" d="M22.2344 0.130207L0.543804 12.6239C0.385926 12.7255 0.254356 12.8631 0.159842 13.0253C0.0653284 13.1876 0.0105547 13.3699 0 13.5573V25.6612C0.0105547 25.8487 0.0653284 26.031 0.159842 26.1932C0.254356 26.3554 0.385926 26.493 0.543804 26.5947L2.68824 27.805C2.84884 27.8801 3.02397 27.9191 3.20126 27.9191C3.37856 27.9191 3.5537 27.8801 3.71429 27.805L25.4665 15.3114C25.6203 15.2063 25.7482 15.0676 25.8406 14.906C25.933 14.7443 25.9875 14.5637 26 14.3779V2.27403C25.9895 2.08658 25.9347 1.90429 25.8402 1.74206C25.7457 1.57982 25.6141 1.44226 25.4562 1.34059L23.322 0.130207C23.1536 0.0446194 22.9672 0 22.7782 0C22.5892 0 22.4029 0.0446194 22.2344 0.130207Z" fill="#103E13"/>
</svg>
