<svg width="3" height="3" viewBox="0 0 3 3" fill="none" xmlns="http://www.w3.org/2000/svg">
<path d="M0.00256065 1.45236C-0.00890307 1.64535 0.0182041 1.8387 0.0822776 2.02112C0.146351 2.20353 0.24613 2.37136 0.375774 2.51481C0.505417 2.65827 0.662321 2.77448 0.837367 2.85666C1.01241 2.93885 1.2021 2.98535 1.39532 2.99348C1.69359 3.01454 1.99134 2.94594 2.25031 2.7965C2.50928 2.64706 2.71761 2.42362 2.84856 2.15488C2.9795 1.88614 3.02709 1.58439 2.98515 1.28842C2.94321 0.992446 2.81369 0.715774 2.61324 0.493964C2.41278 0.272155 2.15055 0.115355 1.86026 0.0436973C1.56996 -0.0279606 1.26487 -0.0111953 0.984179 0.0918475C0.703492 0.19489 0.460042 0.379495 0.285123 0.621938C0.110204 0.86438 0.0117862 1.15358 0.00256065 1.45236Z" fill="#263238"/>
</svg>
