<svg width="148" height="156" viewBox="0 0 148 156" fill="none" xmlns="http://www.w3.org/2000/svg">
<path d="M147.711 13.9319C147.298 13.5082 146.275 13.7149 146.275 13.7149C146.377 13.1198 146.377 12.5116 146.275 11.9165C146.089 11.3378 144.786 11.4514 144.786 11.4514C144.726 10.9641 144.726 10.4712 144.786 9.98383C144.797 9.87581 144.774 9.76721 144.72 9.67287C144.666 9.57853 144.585 9.50306 144.487 9.45674C143.871 9.20551 143.209 9.08582 142.544 9.10535C141.748 8.53691 144.972 4.0204 146.171 2.57347C147.37 1.12653 147.153 0 146.089 0C145.355 0 141.593 4.3408 140.435 5.79807C139.278 7.25534 136.208 11.3068 136.105 8.07182C136.001 4.83689 134.699 2.39777 133.883 1.98436C133.066 1.57096 132.198 2.54246 132.643 3.44162C133.033 4.46316 133.277 5.53492 133.366 6.62488C133.478 7.49311 133.44 8.37421 133.252 9.22936C132.91 10.8205 132.443 12.3825 131.857 13.9009H131.774C131.774 13.9009 109.223 35.5326 107.59 37.0725C106.133 38.4574 76.8219 35.4292 70.9411 34.8091C68.9428 34.5167 66.9249 34.3785 64.9053 34.3957C62.3525 34.5094 61.8978 34.8711 59.3553 34.9021C52.9345 34.9734 46.5285 35.5366 40.1938 36.5868C37.3253 37.0744 34.646 38.3405 32.448 40.2469C30.25 42.1533 28.6178 44.6268 27.7294 47.3974C21.8073 65.8975 8.3922 109.688 6.02543 134.286C4.23698 137.529 2.6224 140.865 1.18854 144.28C-0.47543 148.807 -0.0723558 148.962 0.485747 149.065C1.99469 149.344 3.71034 141.221 4.35113 143.184C4.99191 145.148 1.09553 152.869 2.67682 153.096C4.74387 153.385 6.38717 144.828 6.58354 144.146C6.77991 143.463 7.8031 143.681 7.61707 144.321C7.31734 145.231 4.41314 154.874 6.43885 155.184C7.55506 155.349 7.67908 153.313 7.67908 153.313C7.67908 153.313 9.74613 144.084 10.6866 144.27C11.6271 144.456 10.6246 149.902 10.1492 151.721C9.67378 153.54 10.3352 154.46 11.3067 154.016C11.9682 153.706 13.5495 148.176 13.9836 146.378C14.4177 144.58 15.5029 139.598 16.9601 142.482C18.4174 145.365 20.6291 147.039 21.5386 147.081C21.7436 147.057 21.9368 146.973 22.0933 146.838C22.2499 146.704 22.3626 146.526 22.4171 146.327C22.4716 146.128 22.4653 145.917 22.399 145.722C22.3327 145.527 22.2094 145.356 22.0451 145.231C21.2628 144.467 20.5914 143.597 20.0504 142.647C19.5682 141.907 19.2185 141.089 19.0168 140.229C18.6004 138.514 18.358 136.762 18.2934 134.999L18.128 133.965C20.4431 122.504 27.1093 88.8624 36.7314 67.3754L40.6795 75.4989L42.3951 81.514L31.8739 107.487L76.7495 106.897L70.0523 81.1213L78.1861 54.2497C86.9814 54.4461 109.564 54.7768 113.326 53.0715C118.059 51.0044 142.544 20.0814 142.544 20.0814C144.14 18.8412 145.668 17.5164 147.122 16.1126C147.122 16.1126 148.61 14.8621 147.711 13.9319Z" fill="#FFBE9D"/>
</svg>
