<svg width="4" height="8" viewBox="0 0 4 8" fill="none" xmlns="http://www.w3.org/2000/svg">
<path d="M3.34562 4.40032C3.34562 4.40032 3.43758 4.40032 3.46824 4.40032C3.4899 4.42134 3.50663 4.44691 3.51723 4.47517C3.52783 4.50342 3.53203 4.53368 3.52954 4.56376V5.73846C3.53005 5.8208 3.50891 5.90181 3.46824 5.9734C3.44727 6.0403 3.40399 6.09799 3.34562 6.13684L0.147428 7.97553C0.12892 7.99135 0.105363 8.00004 0.0810089 8.00004C0.0566543 8.00004 0.0331059 7.99135 0.014598 7.97553C-0.00486601 7.91928 -0.00486601 7.85812 0.014598 7.80187V0.937476C0.000504265 0.863229 0.000504265 0.786994 0.014598 0.712747C0.0419917 0.646487 0.0881597 0.589675 0.147428 0.549305L1.0466 0.0283521C1.05518 0.0193913 1.06549 0.0122598 1.07691 0.00738808C1.08832 0.0025164 1.10061 0 1.11302 0C1.12543 0 1.13771 0.0025164 1.14913 0.00738808C1.16054 0.0122598 1.17085 0.0193913 1.17943 0.0283521C1.2011 0.049376 1.21782 0.0749398 1.22842 0.103199C1.23902 0.131459 1.24323 0.161716 1.24074 0.191794V5.64653L3.34562 4.40032Z" fill="#F5F7FA"/>
</svg>
