<svg width="38" height="38" viewBox="0 0 38 38" fill="none" xmlns="http://www.w3.org/2000/svg">
<path d="M1.98952 10.8545C1.3729 11.2065 0.862743 11.7183 0.512819 12.3359C0.162894 12.9536 -0.013807 13.6542 0.00135049 14.3639C-0.0229326 15.4268 0.280769 16.4714 0.871178 17.3557C1.76411 18.4835 2.99991 19.2902 4.39192 19.6538C4.99186 19.7974 5.57759 19.9949 6.14194 20.2439C6.84503 20.745 7.50332 21.3061 8.10941 21.921C9.05173 22.6456 9.98371 23.391 10.9467 24.0949C12.8562 25.5206 14.8516 26.8274 16.9216 28.0081C18.9108 29.1465 20.9886 30.1228 23.1347 30.9274C25.4025 31.7659 27.2768 31.0309 29.6999 31.2483L29.3478 37.8115C29.3478 37.8115 30.1555 36.3001 31.0771 34.4988C31.8745 32.946 35.2192 25.037 35.2192 25.037C36.5239 21.9313 38.1807 18.6808 37.984 15.2128C37.8183 12.4073 37.2591 9.94352 35.126 8.75302C34.9499 5.52315 34.2147 3.94962 31.947 2.22081C30.2736 1.08967 28.3517 0.379382 26.3448 0.150376C24.0779 -0.111347 21.7845 -0.0310893 19.5415 0.388471C16.1864 0.926784 12.8314 1.78602 9.43487 1.61003C7.61985 1.41662 5.78518 1.53212 4.00878 1.95164C2.88035 2.31752 1.90056 3.03843 1.21563 4.00675C0.53071 4.97507 0.177378 6.13887 0.208434 7.32442C0.135948 8.55633 1.11969 10.5854 1.98952 10.8545Z" fill="#37474F"/>
</svg>
