<svg width="14" height="15" viewBox="0 0 14 15" fill="none" xmlns="http://www.w3.org/2000/svg">
<path opacity="0.1" d="M8.30118 7.70811C9.02276 7.39035 9.63495 6.86742 10.0616 6.20438C10.4882 5.54133 10.7105 4.76746 10.7006 3.97908C10.7275 3.46658 10.6498 2.95397 10.4722 2.47247C10.2946 1.99098 10.0208 1.55068 9.66756 1.17841C9.3143 0.806127 8.88895 0.509666 8.41742 0.307073C7.9459 0.104481 7.43806 0 6.92485 0C6.41165 0 5.90381 0.104481 5.43228 0.307073C4.96076 0.509666 4.53541 0.806127 4.18215 1.17841C3.82889 1.55068 3.55513 1.99098 3.37752 2.47247C3.19991 2.95397 3.1222 3.46658 3.14909 3.97908C3.13327 4.77536 3.35371 5.55848 3.78261 6.22956C4.21151 6.90065 4.82963 7.42961 5.55892 7.74967C-0.257963 8.62221 0.00174519 14.9377 0.00174519 14.9377L13.7545 15C13.7545 15 14.0765 8.57026 8.30118 7.70811Z" fill="black"/>
</svg>
