<svg width="180" height="115" viewBox="0 0 180 115" fill="none" xmlns="http://www.w3.org/2000/svg">
<path d="M180 1.85829V10.898L0 114.85V105.922C0.00745213 105.346 0.117934 104.777 0.326216 104.24C0.356565 104.146 0.394052 104.054 0.438353 103.965C0.544116 103.713 0.666723 103.468 0.805347 103.231C1.25556 102.417 1.90872 101.732 2.70148 101.244L177.299 0.360162C177.59 0.141127 177.941 0.0159986 178.305 0.00143368C178.669 -0.0131312 179.029 0.0835606 179.337 0.278633C179.419 0.338923 179.491 0.411056 179.551 0.49265C179.621 0.576529 179.679 0.669016 179.725 0.767817C179.788 0.868017 179.832 0.97837 179.857 1.09394C179.896 1.2133 179.924 1.33618 179.939 1.46083C179.971 1.59124 179.991 1.72425 180 1.85829Z" fill="#4CAF4F"/>
</svg>
