<svg width="5" height="10" viewBox="0 0 5 10" fill="none" xmlns="http://www.w3.org/2000/svg">
<path d="M1.97279 7.05346C1.93589 7.0179 1.90495 6.97664 1.88114 6.93127L1.22934 5.55678V9.0592C1.23207 9.14028 1.21456 9.22075 1.17841 9.29337C1.15111 9.35941 1.10509 9.41604 1.04602 9.45628L0.149795 9.97553C0.131348 9.9913 0.107869 9.99996 0.0835941 9.99996C0.0593194 9.99996 0.0358443 9.9913 0.0173971 9.97553C0.00591283 9.94812 0 9.91869 0 9.88898C0 9.85926 0.00591283 9.82985 0.0173971 9.80244V2.97068C-0.00158598 2.89378 -0.00158598 2.81342 0.0173971 2.73651C0.0447009 2.67047 0.0907215 2.61384 0.149795 2.57361L0.94417 2.11544C1.03583 2.11544 1.10712 2.11544 1.14786 2.11544C1.18331 2.14849 1.21413 2.18616 1.23952 2.22744L2.3598 4.51827L3.46989 0.944584C3.49326 0.867179 3.52396 0.792174 3.56156 0.720591C3.60014 0.621222 3.67217 0.5384 3.76524 0.486406L4.55962 0.0282438C4.56818 0.0193123 4.57845 0.0122041 4.58983 0.00734837C4.60121 0.00249263 4.61345 0 4.62582 0C4.63819 0 4.65044 0.00249263 4.66181 0.00734837C4.67319 0.0122041 4.68346 0.0193123 4.69201 0.0282438C4.70386 0.0537635 4.71001 0.0815621 4.71001 0.109697C4.71001 0.137833 4.70386 0.165631 4.69201 0.191151V7.03309C4.711 7.10999 4.711 7.19035 4.69201 7.26726C4.66175 7.33149 4.61631 7.3874 4.55962 7.43016L3.6634 7.94941C3.64366 7.96213 3.62068 7.96889 3.5972 7.96889C3.57372 7.96889 3.55073 7.96213 3.531 7.94941C3.51951 7.922 3.5136 7.89259 3.5136 7.86288C3.5136 7.83316 3.51951 7.80374 3.531 7.77633V4.26373L2.8792 6.38148C2.85411 6.46156 2.82348 6.5398 2.78754 6.61564C2.75335 6.69202 2.69645 6.75602 2.62459 6.79892L2.18666 7.04326C2.06445 7.08399 2.01353 7.09418 1.97279 7.05346Z" fill="#F5F7FA"/>
</svg>
