<svg width="107" height="19" viewBox="0 0 107 19" fill="none" xmlns="http://www.w3.org/2000/svg">
<path d="M104.615 18.2793C104.824 18.2546 105.032 18.2165 105.236 18.1653C105.525 18.0737 105.79 17.922 106.015 17.7201C106.24 17.5183 106.42 17.2709 106.542 16.9944C106.704 16.5758 106.768 16.1255 106.729 15.6783C106.729 15.1706 106.729 14.6421 106.729 14.0307C106.729 12.839 106.729 11.4608 106.729 9.88576V3.30561C106.778 2.82922 106.673 2.34956 106.428 1.93777C106.166 1.52315 105.766 1.21474 105.299 1.06733C104.783 0.971547 104.257 0.940224 103.734 0.97407H88.8223L2.45153 0.652838C1.98695 0.653934 1.53856 0.823705 1.18976 1.13058C0.840958 1.43745 0.61547 1.86052 0.555202 2.32117C0.555202 3.35741 0.555202 4.39366 0.555202 5.4299C0.555202 7.50238 0.555202 9.57487 0.555202 11.6474C0.555202 12.6836 0.555202 13.7198 0.555202 14.7561C0.516613 15.2369 0.537493 15.7207 0.617374 16.1965C0.741472 16.6193 1.00894 16.9857 1.37383 17.2327C1.75422 17.4811 2.20569 17.5976 2.65877 17.5643H7.16642L30.0985 17.6887L68.9264 17.927L95.1019 18.1342L102.221 18.2171H95.1019H68.9264L30.0985 18.1031L7.16642 18.0099H2.65877C2.09782 18.0477 1.54018 17.8983 1.07332 17.585C0.601805 17.2584 0.257683 16.7788 0.099253 16.2276C0.00637627 15.701 -0.0214673 15.1651 0.0163518 14.6317C0.0163518 13.5955 0.0163518 12.5592 0.0163518 11.523C0.0163518 9.45052 0.0163518 7.37804 0.0163518 5.30555C0.0163518 4.26931 0.0163518 3.23308 0.0163518 2.14503C0.0896103 1.55337 0.376474 1.00886 0.823006 0.613846C1.26954 0.218836 1.84498 0.000534169 2.44115 0L88.8119 0.476662L103.723 0.590666C104.279 0.556602 104.836 0.594904 105.381 0.704637C105.92 0.88055 106.374 1.24973 106.656 1.74088C106.924 2.1973 107.04 2.72708 106.988 3.25378C106.988 3.74082 106.988 4.22787 106.988 4.69417C106.988 6.56977 106.988 8.28994 106.988 9.87539C106.988 11.4608 106.988 12.7976 106.988 14.0204C106.988 14.611 106.988 15.1602 106.988 15.668C107.027 16.1315 106.953 16.5976 106.77 17.0254C106.636 17.3114 106.441 17.5649 106.199 17.7688C105.958 17.9727 105.675 18.1221 105.371 18.2068C105.128 18.29 104.869 18.3148 104.615 18.2793Z" fill="#E0E0E0"/>
</svg>
