<svg width="4" height="9" viewBox="0 0 4 9" fill="none" xmlns="http://www.w3.org/2000/svg">
<path d="M3.85245 0.0283384C3.86104 0.019377 3.87135 0.012245 3.88276 0.00737298C3.89418 0.00250097 3.90646 0 3.91887 0C3.93128 0 3.94357 0.00250097 3.95498 0.00737298C3.9664 0.012245 3.97671 0.019377 3.98529 0.0283384C4.00486 0.0810656 4.00486 0.139064 3.98529 0.191791V1.31551C4.00071 1.39307 4.00071 1.4729 3.98529 1.55046C3.9579 1.61672 3.91172 1.67354 3.85245 1.71391L2.63646 2.41877V7.86366C2.63216 7.9486 2.61134 8.03188 2.57514 8.10884C2.54478 8.17329 2.49918 8.22939 2.4423 8.27229L1.53286 8.79328C1.51306 8.80604 1.49 8.81283 1.46644 8.81283C1.44288 8.81283 1.41982 8.80604 1.40002 8.79328C1.38055 8.73703 1.38055 8.67587 1.40002 8.61962V3.17473L0.184021 3.8694C0.165512 3.88522 0.141959 3.89391 0.117603 3.89391C0.0932466 3.89391 0.069689 3.88522 0.05118 3.8694C0.0164422 3.81825 -0.00142208 3.75752 8.84761e-05 3.69572V2.57202C0.00116116 2.49106 0.0185369 2.41116 0.05118 2.33706C0.0785753 2.2708 0.12475 2.21398 0.184021 2.17361L3.85245 0.0283384Z" fill="#F5F7FA"/>
</svg>
