<svg width="5" height="9" viewBox="0 0 5 9" fill="none" xmlns="http://www.w3.org/2000/svg">
<path d="M1.39562 4.09993C1.39562 4.21155 1.39562 4.34549 1.39562 4.52408V5.64027C1.39562 5.81885 1.39562 5.95279 1.39562 6.05325C1.40538 6.21105 1.42779 6.36782 1.46261 6.52204C1.48604 6.64711 1.54406 6.76312 1.63009 6.8569C1.707 6.93583 1.8104 6.98355 1.92038 6.99085C2.07205 6.98034 2.21832 6.93031 2.34465 6.84574C2.50824 6.76549 2.65286 6.65134 2.76892 6.51089C2.87533 6.39736 2.96551 6.26965 3.03688 6.13139C3.10667 6.0076 3.16283 5.87661 3.20435 5.74072C3.20435 5.60678 3.27134 5.49516 3.29367 5.3947C3.30447 5.2873 3.33079 5.18202 3.37183 5.08217C3.41344 5.00707 3.47534 4.94518 3.55046 4.90358L4.53298 4.33433C4.53298 4.33433 4.6223 4.33433 4.64463 4.33433C4.66366 4.35321 4.67847 4.3759 4.68809 4.40091C4.69771 4.42592 4.70193 4.45269 4.70046 4.47944C4.69029 4.89517 4.6265 5.30783 4.51065 5.70723C4.38759 6.12259 4.2191 6.52312 4.00823 6.90156C3.7998 7.27251 3.5528 7.62045 3.27134 7.9396C3.00579 8.2413 2.69278 8.49768 2.34465 8.69861C2.05408 8.88502 1.71838 8.98916 1.37329 8.99997C1.10859 9.00311 0.851387 8.91213 0.647571 8.74325C0.426571 8.54742 0.26749 8.2914 0.189807 8.00656C0.0729663 7.64562 0.00903224 7.26965 0 6.89038C0 6.57785 0 6.243 0 5.88583C0 5.52865 0 5.16031 0 4.82546C0.0169996 4.3817 0.0768236 3.94061 0.17864 3.50835C0.287902 3.06833 0.445156 2.64162 0.647571 2.23591C0.840441 1.83418 1.08436 1.45903 1.37329 1.11972C1.65083 0.797349 1.97888 0.522168 2.34465 0.304917C2.62544 0.13279 2.94299 0.0295164 3.27134 0.00354302C3.52966 -0.0161164 3.78759 0.0463974 4.00823 0.182136C4.23434 0.330835 4.40963 0.545024 4.51065 0.79604C4.63757 1.11569 4.702 1.45669 4.70046 1.8006C4.69932 1.87477 4.68016 1.94755 4.64463 2.01267C4.62337 2.07145 4.58435 2.12216 4.53298 2.15778L3.55046 2.72703C3.46114 2.72703 3.40532 2.78284 3.37183 2.72703C3.32755 2.66445 3.30059 2.59129 3.29367 2.51495C3.29367 2.43682 3.29367 2.34753 3.20435 2.25824C3.16454 2.1794 3.10726 2.11068 3.03688 2.05731C2.95605 2.00923 2.86287 1.98595 2.76892 1.99035C2.61696 2.0075 2.47141 2.06111 2.34465 2.14661C2.17947 2.23422 2.03485 2.35599 1.92038 2.5038C1.80075 2.64059 1.70285 2.79493 1.63009 2.96144C1.55282 3.12872 1.49657 3.30492 1.46261 3.48602C1.42648 3.68892 1.4041 3.89402 1.39562 4.09993Z" fill="#F5F7FA"/>
</svg>
