<svg width="53" height="83" viewBox="0 0 53 83" fill="none" xmlns="http://www.w3.org/2000/svg">
<path d="M52.8185 5.92553C52.016 3.19482 49.1081 1.83988 46.4608 1.08946C42.4272 -0.0570215 38.0706 -0.557307 34.1309 0.891429C30.1911 2.34017 25.4593 4.88327 25.4593 9.22948C23.1351 9.04187 21.801 11.0743 20.8838 13.5965C20.2974 15.1332 19.946 16.7495 19.8415 18.3909C19.5497 24.0816 17.9551 31.9402 14.2655 36.1093C12.181 38.4335 9.29391 40.0386 8.10574 42.9361C7.06348 45.4479 7.60545 48.4287 6.63615 50.9718C5.77108 53.2127 3.86375 54.8073 2.46713 56.7564C1.04427 58.9674 0.206893 61.5039 0.03369 64.1274C-0.139513 66.751 0.357143 69.3755 1.47699 71.7544C2.60488 74.0723 4.19287 76.1363 6.14421 77.8207C8.09554 79.505 10.3694 80.7744 12.8272 81.5516C17.6956 83.0328 22.8871 83.0834 27.7835 81.6975C31.4583 80.8189 34.8862 79.1192 37.81 76.726C40.8017 74.283 42.8564 70.8805 43.6258 67.0955C44.3658 62.8431 43.1777 58.5178 42.2917 54.2862C39.5193 40.9141 40.3114 40.2158 43.8134 27.8025C43.8968 27.5836 43.9385 27.3543 44.001 27.1354C44.0636 26.9166 44.0948 26.8123 44.1365 26.6456C44.236 26.1549 44.2884 25.6558 44.2929 25.1552C43.7814 25.3454 43.2262 25.3856 42.6926 25.2711C42.159 25.1567 41.6692 24.8922 41.2807 24.509C40.8914 24.1003 40.6199 23.5938 40.4951 23.0433C40.3703 22.4928 40.3969 21.9188 40.572 21.3822C40.8179 20.7953 41.1843 20.2666 41.6476 19.8303C42.1108 19.394 42.6605 19.0599 43.261 18.8495C44.4179 18.3701 45.6582 18.1199 46.7943 17.5884C49.2019 16.4419 50.8695 14.0655 52.0056 11.5746C52.9396 9.8481 53.2278 7.8453 52.8185 5.92553Z" fill="#263238"/>
</svg>
