<svg width="53" height="57" viewBox="0 0 53 57" fill="none" xmlns="http://www.w3.org/2000/svg">
<path d="M53 56.7364C52.5944 56.9057 52.1557 56.9808 51.7169 56.956C51.2781 56.9311 50.8507 56.8069 50.4669 56.5928L6.82047 32.6639C6.43835 32.4521 6.1078 32.1584 5.8525 31.8039C5.5972 31.4494 5.42345 31.0429 5.34371 30.6134L0.0109559 2.58358C-0.00365198 2.42329 -0.00365198 2.262 0.0109559 2.10171C0.00097171 1.71444 0.068406 1.32909 0.209283 0.968195C0.350159 0.607303 0.561664 0.278144 0.831396 0L46.1392 24.8721C46.42 25.023 46.6634 25.2348 46.8515 25.4921C47.0396 25.7493 47.1677 26.0455 47.2262 26.3587L53 56.7364Z" fill="#4CAF4F"/>
</svg>
