<svg width="4" height="5" viewBox="0 0 4 5" fill="none" xmlns="http://www.w3.org/2000/svg">
<path d="M1.97811 0C2.22364 0.36275 2.4264 0.752674 2.58235 1.162C2.93096 1.89407 3.39576 2.92825 3.90704 4.12512L4 4.3459H3.75597L2.59397 4.45048C1.79219 4.45048 1.11823 4.60153 0.328064 4.58991C0.25926 4.57444 0.195492 4.54183 0.142671 4.4951C0.0898507 4.44838 0.0496982 4.38906 0.0259498 4.32266C-0.00864992 4.21696 -0.00864992 4.10299 0.0259498 3.9973C0.0528414 3.84068 0.0877431 3.68553 0.130526 3.53248L0.339678 2.70747C0.444786 2.15709 0.60841 1.61952 0.827735 1.1039C0.806101 1.66493 0.724284 2.22202 0.583706 2.76557L0.421027 3.59059C0.362927 3.86947 0.258346 4.29941 0.421027 4.26455C1.00203 4.26455 1.82705 4.13674 2.59397 4.09026L3.75597 3.98566L3.60492 4.24131C3.10526 3.0793 2.68694 1.98702 2.44292 1.23172C2.22886 0.845959 2.07226 0.43101 1.97811 0Z" fill="#4CAF4F"/>
</svg>
