<svg width="86" height="178" viewBox="0 0 86 178" fill="none" xmlns="http://www.w3.org/2000/svg">
<path d="M85.5668 2.14696V126.586C85.5119 127.623 85.2122 128.633 84.6921 129.533C84.1721 130.433 83.4465 131.196 82.5746 131.762L3.02277 177.703C2.71597 177.892 2.36207 177.991 2.00157 177.989C1.87606 178.004 1.74924 178.004 1.62373 177.989C1.53511 177.969 1.44934 177.938 1.36843 177.897L1.20503 177.815L1.03143 177.693C0.972352 177.651 0.917613 177.603 0.86803 177.55C0.633531 177.327 0.44603 177.06 0.316587 176.764C0.107862 176.287 6.19197e-05 175.773 0 175.253V51.4264C0.0589162 50.3898 0.360339 49.3814 0.880013 48.4824C1.39969 47.5835 2.12312 46.8189 2.99214 46.2504L82.544 0.401204C82.8369 0.193396 83.1767 0.0613282 83.5331 0.0167925C83.8895 -0.0277433 84.2514 0.0166393 84.5864 0.145976C84.6759 0.189391 84.7613 0.240634 84.8417 0.29911C85.1047 0.524213 85.3083 0.81044 85.4347 1.13264C85.5612 1.45484 85.6065 1.80315 85.5668 2.14696Z" fill="#455A64"/>
</svg>
