<svg width="5" height="5" viewBox="0 0 5 5" fill="none" xmlns="http://www.w3.org/2000/svg">
<path d="M4.66882 2.50002C4.69115 2.81988 4.64741 3.14089 4.54035 3.44313C4.43329 3.74537 4.26519 4.02235 4.04649 4.25684C3.8278 4.49133 3.5632 4.67832 3.26915 4.80617C2.9751 4.93401 2.65788 5 2.33724 5C2.0166 5 1.69938 4.93401 1.40533 4.80617C1.11128 4.67832 0.846678 4.49133 0.627985 4.25684C0.409293 4.02235 0.241193 3.74537 0.134131 3.44313C0.0270703 3.14089 -0.0166533 2.81988 0.00567339 2.50002C-0.0166533 2.18015 0.0270703 1.85911 0.134131 1.55687C0.241193 1.25463 0.409293 0.977642 0.627985 0.743152C0.846678 0.508663 1.11128 0.321676 1.40533 0.19383C1.69938 0.0659831 2.0166 0 2.33724 0C2.65788 0 2.9751 0.0659831 3.26915 0.19383C3.5632 0.321676 3.8278 0.508663 4.04649 0.743152C4.26519 0.977642 4.43329 1.25463 4.54035 1.55687C4.64741 1.85911 4.69115 2.18015 4.66882 2.50002Z" fill="#4CAF4F"/>
</svg>
