<svg width="107" height="19" viewBox="0 0 107 19" fill="none" xmlns="http://www.w3.org/2000/svg">
<path d="M104.698 18.1428C104.907 18.1171 105.115 18.0791 105.319 18.0289C105.609 17.9368 105.875 17.7837 106.1 17.5799C106.326 17.3761 106.504 17.1264 106.625 16.8477C106.788 16.4294 106.852 15.9789 106.811 15.5318C106.811 15.0344 106.811 14.4956 106.811 13.8946C106.811 12.6927 106.811 11.325 106.811 9.75008V3.17059C106.861 2.69424 106.756 2.21463 106.511 1.80288C106.255 1.3806 105.853 1.06712 105.382 0.922166C104.866 0.830071 104.34 0.802227 103.817 0.839272H88.907L2.54454 0.518071C2.08001 0.519167 1.63168 0.688906 1.28291 0.995747C0.934141 1.30259 0.70866 1.72565 0.648397 2.18626C0.648397 3.17059 0.648397 4.25854 0.648397 5.29468C0.648397 7.36697 0.648397 9.43925 0.648397 11.5115C0.648397 12.5477 0.648397 13.5838 0.648397 14.62C0.609799 15.1042 0.630675 15.5914 0.710563 16.0706C0.839932 16.4907 1.1062 16.8555 1.46694 17.1067C1.84969 17.3496 2.29928 17.4656 2.75176 17.4383H4.192H7.18645L30.1163 17.5522L68.9405 17.7906L95.1134 17.9978L102.232 18.0807H95.1134H68.9405L30.0955 18.0392L7.16572 17.9563H2.65852C2.09808 17.9896 1.54195 17.8405 1.07322 17.5315C0.601747 17.2049 0.257658 16.7254 0.0992434 16.1742C0.00637565 15.6477 -0.0214652 15.1118 0.0163502 14.5785C0.0163502 13.5424 0.0163502 12.5062 0.0163502 11.4701C0.0163502 9.3978 0.0163502 7.32551 0.0163502 5.25323C0.0163502 4.21709 0.0163502 3.18095 0.0163502 2.14481C0.0919548 1.55233 0.380898 1.00773 0.829093 0.612933C1.27729 0.21814 1.85401 0.000235889 2.45129 0L88.8137 0.476616L103.724 0.590593C104.279 0.556533 104.836 0.594847 105.382 0.704569C105.92 0.880464 106.374 1.24961 106.656 1.74071C106.924 2.19709 107.04 2.72683 106.988 3.25348C106.988 3.74047 106.988 4.2171 106.988 4.69372C106.988 6.56914 106.988 8.28913 106.988 9.87443C106.988 11.4597 106.988 12.7963 106.988 14.019C106.988 14.6096 106.988 15.1587 106.988 15.6665C107.025 16.1298 106.951 16.5954 106.77 17.0238C106.636 17.3097 106.441 17.5632 106.2 17.7671C105.958 17.9709 105.676 18.1203 105.371 18.205C105.145 18.2237 104.917 18.2027 104.698 18.1428Z" fill="#E0E0E0"/>
</svg>
