<svg width="183" height="117" viewBox="0 0 183 117" fill="none" xmlns="http://www.w3.org/2000/svg">
<path opacity="0.15" d="M183 3.80621V12.8235L3.44726 116.517L0 114.483V105.619C0.0383334 104.666 0.318274 103.739 0.813513 102.925C1.26512 102.123 1.91225 101.448 2.69476 100.963L176.868 0.359939C177.15 0.157355 177.481 0.0351882 177.827 0.00653447C178.172 -0.0221192 178.52 0.0438209 178.831 0.197283C179.329 0.502263 181.688 1.84417 182.166 2.08816C182.241 2.12368 182.31 2.17181 182.369 2.23048C182.451 2.29062 182.523 2.36258 182.583 2.44397C182.652 2.52764 182.71 2.6199 182.756 2.71845C182.818 2.8184 182.863 2.92848 182.888 3.04376C182.927 3.16283 182.954 3.2854 182.969 3.40974C182.991 3.54074 183.001 3.67341 183 3.80621Z" fill="#103E13"/>
</svg>
