<svg width="3" height="3" viewBox="0 0 3 3" fill="none" xmlns="http://www.w3.org/2000/svg">
<path d="M0 1.51083C0.00237816 1.80452 0.0909722 2.09105 0.254791 2.33485C0.41861 2.57865 0.650441 2.769 0.921508 2.88226C1.19257 2.99552 1.49093 3.0267 1.77957 2.97196C2.06821 2.91721 2.33444 2.77894 2.54517 2.57429C2.7559 2.36965 2.90189 2.10764 2.96499 1.8208C3.0281 1.53395 3.00555 1.2349 2.90016 0.960744C2.79476 0.686592 2.61116 0.449404 2.37213 0.278639C2.1331 0.107874 1.84916 0.0110508 1.55557 0.000163322C1.3542 -0.00277531 1.15424 0.0339678 0.967081 0.108299C0.77992 0.182631 0.609242 0.293086 0.464789 0.433369C0.320336 0.573651 0.204939 0.741008 0.125192 0.925879C0.0454445 1.11075 0.00289724 1.30952 0 1.51083Z" fill="#263238"/>
</svg>
