<svg width="4" height="7" viewBox="0 0 4 7" fill="none" xmlns="http://www.w3.org/2000/svg">
<path d="M2.71199 3.94418V5.87856C2.70937 5.96878 2.68629 6.05722 2.64449 6.13722C2.61469 6.20408 2.56821 6.26216 2.5095 6.30591L1.54204 6.85698C1.53359 6.86656 1.52321 6.87423 1.51157 6.87948C1.49993 6.88473 1.4873 6.88744 1.47454 6.88744C1.46177 6.88744 1.44915 6.88473 1.43751 6.87948C1.42587 6.87423 1.41549 6.86656 1.40704 6.85698C1.38319 6.83384 1.36477 6.80569 1.3531 6.77458C1.34143 6.74347 1.3368 6.71015 1.33955 6.67704V4.74267L0.214593 5.42869C0.194217 5.44612 0.168282 5.4557 0.141468 5.4557C0.114655 5.4557 0.0887202 5.44612 0.0683436 5.42869C0.0442253 5.4034 0.0257433 5.37329 0.0141094 5.34033C0.00247539 5.30738 -0.00204393 5.27233 0.000849068 5.23751V4.05664C0.00346838 3.96642 0.0265451 3.87798 0.0683436 3.79798C0.0948498 3.72578 0.146875 3.66578 0.214593 3.62929L1.33955 2.94326V1.02013C1.33899 0.929482 1.36226 0.840287 1.40704 0.761466C1.43358 0.689635 1.48049 0.627097 1.54204 0.58152L2.5095 0.03046C2.51795 0.0208865 2.52833 0.0132144 2.53997 0.0079625C2.55161 0.00271064 2.56423 0 2.577 0C2.58976 0 2.60238 0.00271064 2.61402 0.0079625C2.62566 0.0132144 2.63604 0.0208865 2.64449 0.03046C2.66834 0.0536068 2.68676 0.0817348 2.69843 0.112848C2.7101 0.143961 2.71474 0.177273 2.71199 0.210389V2.14476L3.83695 1.46999C3.8464 1.46013 3.85774 1.45227 3.87031 1.44691C3.88288 1.44155 3.8964 1.43878 3.91006 1.43878C3.92373 1.43878 3.93725 1.44155 3.94982 1.44691C3.96239 1.45227 3.97374 1.46013 3.98319 1.46999C4.00553 1.53176 4.00553 1.5994 3.98319 1.66118V2.78581C3.99871 2.86756 3.99871 2.95149 3.98319 3.03323C3.95303 3.10618 3.9022 3.16872 3.83695 3.21316L2.71199 3.94418Z" fill="#F5F7FA"/>
</svg>
