<svg width="107" height="19" viewBox="0 0 107 19" fill="none" xmlns="http://www.w3.org/2000/svg">
<path d="M105.142 18.2588C105.351 18.2377 105.557 18.1889 105.754 18.1138C106.04 18.0016 106.29 17.8109 106.473 17.5634C106.656 17.316 106.766 17.0218 106.79 16.7148C106.79 15.0672 106.79 12.6631 106.79 9.57507C106.79 8.03106 106.79 6.30053 106.79 4.39383C106.79 3.92752 106.79 3.44048 106.79 2.95345C106.857 2.48085 106.754 1.99965 106.5 1.59596C106.357 1.4024 106.171 1.24457 105.957 1.13489C105.743 1.02521 105.507 0.966659 105.267 0.963852H103.65H88.6762L2.00442 0.642618C1.78257 0.638848 1.5631 0.688687 1.36465 0.787913C1.1662 0.887139 0.994644 1.03282 0.864553 1.21256C0.614315 1.61789 0.518644 2.09987 0.595119 2.57004C0.595119 3.60629 0.595119 4.64254 0.595119 5.67878C0.595119 7.75128 0.595119 9.82377 0.595119 11.8963C0.595119 12.9325 0.595119 13.9688 0.595119 15.005C0.552131 15.4876 0.552131 15.9731 0.595119 16.4558C0.649557 16.6627 0.75074 16.8543 0.890864 17.016C1.03099 17.1777 1.20632 17.3051 1.40339 17.3884C1.60757 17.4697 1.8262 17.5084 2.04588 17.5024H7.32037L30.3354 17.6267L69.2984 17.8651L95.5672 18.0723L102.707 18.1552H104.562C104.987 18.1552 105.194 18.1552 105.194 18.1552H104.562H102.707H95.5672H69.2984L30.3354 18.0309L7.32037 17.9376H2.04588C1.7556 17.9493 1.46609 17.8999 1.19614 17.7925C0.923289 17.6761 0.680633 17.4988 0.486681 17.2744C0.292729 17.0499 0.152601 16.7841 0.0769948 16.4972C0.017009 16.2252 -0.00392377 15.9461 0.0148225 15.6682V14.9014C0.0148225 13.8651 0.0148225 12.8289 0.0148225 11.7926C0.0148225 9.72014 0.0148225 7.64765 0.0148225 5.57515C0.0148225 4.5389 0.0148225 3.50266 0.0148225 2.46641C-0.00494082 2.19043 -0.00494082 1.91339 0.0148225 1.63741C0.0536524 1.33258 0.171543 1.04322 0.356786 0.798048C0.535548 0.547915 0.772144 0.344718 1.04641 0.205783C1.32067 0.0668473 1.62447 -0.00369412 1.93189 0.000149023L88.6037 0.476814L103.577 0.580445H105.194C105.479 0.580665 105.759 0.649528 106.012 0.781209C106.264 0.91289 106.482 1.10351 106.645 1.3369C106.937 1.78743 107.055 2.32899 106.976 2.86019C106.976 3.34722 106.976 3.83426 106.976 4.30057C106.976 6.18654 106.976 7.91708 106.976 9.48181C106.976 12.5906 106.904 14.9739 106.883 16.6319C106.858 16.9507 106.742 17.2556 106.549 17.5108C106.356 17.766 106.095 17.9608 105.795 18.0723C105.599 18.1938 105.373 18.2584 105.142 18.2588Z" fill="#E0E0E0"/>
</svg>
