<svg width="5" height="5" viewBox="0 0 5 5" fill="none" xmlns="http://www.w3.org/2000/svg">
<path d="M4.9942 2.66991C4.96107 3.15626 4.78647 3.6223 4.49189 4.01071C4.1973 4.39912 3.79559 4.69296 3.33619 4.85601C2.87678 5.01906 2.37974 5.04424 1.90621 4.92845C1.43267 4.81267 1.00332 4.56094 0.670992 4.2043C0.338663 3.84765 0.117835 3.40164 0.0357197 2.92112C-0.0463954 2.44061 0.01379 1.94657 0.208824 1.4998C0.403859 1.05304 0.725249 0.673016 1.13346 0.406549C1.54166 0.140081 2.01885 -0.00123115 2.50633 8.08116e-06C3.18989 0.025314 3.83554 0.320541 4.30186 0.820978C4.76817 1.32141 5.01715 1.98627 4.9942 2.66991Z" fill="#4CAF4F"/>
</svg>
