<svg width="5" height="9" viewBox="0 0 5 9" fill="none" xmlns="http://www.w3.org/2000/svg">
<path d="M2.27652 0.296876C2.54609 0.130756 2.851 0.0304403 3.16657 0.00403924C3.40865 -0.0153714 3.6512 0.035458 3.86509 0.150449C4.06877 0.259556 4.23396 0.428644 4.33828 0.634775C4.44708 0.847617 4.50493 1.08282 4.50727 1.32183C4.52309 1.38848 4.52309 1.4579 4.50727 1.52456C4.48149 1.58138 4.44293 1.6315 4.39461 1.67099L3.39189 2.2454C3.33701 2.26345 3.27779 2.26345 3.2229 2.2454C3.17301 2.2414 3.12568 2.22168 3.0877 2.18908L3.02011 2.11025C2.98158 2.07141 2.93559 2.04075 2.88491 2.02014C2.80705 2.0023 2.72617 2.0023 2.64831 2.02014C2.53099 2.04132 2.41958 2.08741 2.32159 2.15529C2.22097 2.20861 2.12652 2.27282 2.03993 2.34677C1.95314 2.41308 1.87382 2.48862 1.80333 2.57204C1.73354 2.65715 1.67661 2.75201 1.63434 2.85362C1.58941 2.95664 1.56639 3.06787 1.56674 3.18025C1.56127 3.26978 1.58939 3.35813 1.64561 3.42804C1.67634 3.45846 1.71367 3.48139 1.7547 3.49507C1.79573 3.50874 1.83935 3.51279 1.8822 3.50689C2.03824 3.50192 2.19321 3.47923 2.34413 3.4393L3.04264 3.2591C3.27503 3.18334 3.51979 3.15275 3.76369 3.16899C3.9569 3.17042 4.14379 3.23799 4.29321 3.36046C4.43966 3.50245 4.5448 3.68151 4.59741 3.87856C4.67689 4.17218 4.71481 4.47548 4.71007 4.77962C4.70382 5.16172 4.64312 5.54097 4.5298 5.90594C4.2902 6.67353 3.86447 7.37 3.2905 7.93332C3.00951 8.21099 2.69545 8.45308 2.35539 8.65416C2.06631 8.83021 1.74424 8.94521 1.40901 8.99206C1.15691 9.02029 0.902091 8.97327 0.676694 8.85691C0.469767 8.73811 0.301547 8.5621 0.192238 8.35005C0.0706133 8.11325 0.00872587 7.85033 0.0119711 7.58416C-0.00399036 7.51372 -0.00399036 7.4406 0.0119711 7.37016C0.0377811 7.31649 0.0764959 7.27006 0.124642 7.235L1.12735 6.66057C1.19495 6.66057 1.25128 6.59299 1.28508 6.66057C1.32566 6.64956 1.36844 6.64956 1.40901 6.66057L1.49914 6.76195C1.54844 6.81207 1.6055 6.85391 1.66813 6.88585C1.75274 6.91056 1.84266 6.91056 1.92727 6.88585C2.06299 6.86803 2.19347 6.82198 2.31032 6.75068C2.5599 6.60758 2.78757 6.42929 2.98631 6.22131C3.15783 6.05148 3.25506 5.82064 3.2567 5.57931C3.26188 5.53447 3.25524 5.48905 3.23746 5.44756C3.21967 5.40608 3.19135 5.36996 3.1553 5.34278C3.05944 5.31641 2.95824 5.31641 2.86238 5.34278C2.69066 5.36114 2.52096 5.39507 2.35539 5.44414L1.62307 5.62436C1.43526 5.69578 1.23177 5.7157 1.03367 5.68204C0.83557 5.64837 0.650076 5.56234 0.496427 5.43289C0.20623 5.024 0.0741462 4.5238 0.124642 4.02499C0.129841 3.67033 0.182896 3.31799 0.282371 2.97752C0.377044 2.61061 0.521062 2.25823 0.710491 1.93003C0.895357 1.5842 1.12242 1.26263 1.38647 0.972674C1.64976 0.706536 1.94942 0.479007 2.27652 0.296876Z" fill="#F5F7FA"/>
</svg>
