<svg width="5" height="9" viewBox="0 0 5 9" fill="none" xmlns="http://www.w3.org/2000/svg">
<path d="M1.44174 4.08372C1.44174 4.18428 1.44174 4.32954 1.44174 4.50831V5.62563C1.44174 5.81557 1.44174 5.94966 1.44174 6.05022C1.45151 6.20818 1.47394 6.36512 1.5088 6.51951C1.54158 6.64137 1.5986 6.75536 1.67645 6.85469C1.75461 6.93203 1.85745 6.97948 1.96703 6.98876C2.11885 6.97823 2.26528 6.92815 2.39173 6.8435C2.55075 6.75583 2.69423 6.6426 2.81643 6.50832C2.92028 6.38993 3.01376 6.26283 3.09584 6.12844C3.16019 6.0033 3.21259 5.87236 3.25231 5.73737C3.25231 5.60329 3.31937 5.49155 3.34172 5.37982C3.35939 5.27726 3.38556 5.17637 3.41995 5.07815C3.45812 5.00041 3.52101 4.93753 3.59877 4.89938L4.58229 4.32953C4.5999 4.31594 4.62152 4.3086 4.64376 4.3086C4.66601 4.3086 4.68763 4.31594 4.70523 4.32953C4.70523 4.32953 4.70523 4.40775 4.70523 4.47479C4.70055 4.89141 4.63657 5.30525 4.51523 5.70385C4.39596 6.11928 4.23103 6.52025 4.02348 6.89939C3.81382 7.26941 3.56259 7.61427 3.27466 7.9273C3.01197 8.23254 2.69806 8.48968 2.34703 8.68711C2.06006 8.87475 1.72833 8.98272 1.38586 8.99996C1.12089 9.0031 0.863422 8.91201 0.659399 8.74296C0.438305 8.54479 0.275928 8.28969 0.189996 8.00552C0.0749537 7.64374 0.0110059 7.26767 0 6.88821C0 6.57536 0 6.24016 0 5.87144C0 5.50273 0 5.15635 0 4.82116C0.0146453 4.37603 0.0783611 3.93389 0.189996 3.50273C0.328413 3.06229 0.51586 2.63877 0.748812 2.24015C0.943253 1.83879 1.18732 1.46342 1.47528 1.12283C1.75309 0.800128 2.08148 0.524667 2.44761 0.307194C2.72869 0.134892 3.04656 0.0315132 3.37525 0.00551335C3.6378 -0.019899 3.90133 0.043019 4.12406 0.184289C4.34723 0.333771 4.51893 0.548341 4.61582 0.798818C4.74838 1.11717 4.81309 1.45964 4.80582 1.8044C4.82165 1.87428 4.82165 1.94681 4.80582 2.01669C4.77705 2.07424 4.73489 2.12406 4.68288 2.16195L3.69936 2.73178C3.60995 2.73178 3.55407 2.73178 3.52054 2.73178C3.48131 2.66658 3.45476 2.59454 3.44231 2.51948C3.44231 2.44127 3.44231 2.35189 3.3529 2.2625C3.32322 2.18067 3.26846 2.11029 3.19643 2.06139C3.11092 2.01458 3.01446 1.99143 2.91702 1.99434C2.76664 2.01161 2.62177 2.06116 2.49232 2.1396C2.33186 2.23435 2.18832 2.3552 2.06762 2.49715C1.9539 2.64249 1.85645 2.79983 1.77703 2.9664C1.70784 3.13692 1.6518 3.31248 1.60939 3.49154C1.54029 3.68496 1.48428 3.8828 1.44174 4.08372Z" fill="#F5F7FA"/>
</svg>
